<?xml version="1.0" encoding="utf-8"?>
<!-- Generator: Adobe Illustrator 24.0.2, SVG Export Plug-In . SVG Version: 6.00 Build 0)  -->
<svg version="1.1" id="Layer_1" xmlns="http://www.w3.org/2000/svg" xmlns:xlink="http://www.w3.org/1999/xlink" x="0px" y="0px"
	 viewBox="0 0 701.8 148" style="enable-background:new 0 0 701.8 148;" xml:space="preserve">
<style type="text/css">
	.st0{fill:#FFFFFF;}
</style>
<g>
	<g>
		<path class="st0" d="M44.1,80.4l-24.6,0l0,24.1h24.6c8.1,0,12.4-4,12.4-12C56.3,84.7,52,80.4,44.1,80.4 M41.7,42.9l-22.3,0v22.9
			h22.3c7.7,0,12-3.7,12-11.4C53.5,46.7,49.3,42.9,41.7,42.9 M70.1,51.9c0,9.3-3.1,15.5-9.9,19.6V72c8.4,2.9,13.2,10.8,13.2,22.5
			c0,16.4-12.2,25.3-29.2,25.3l-36.6,0c-3.4,0-4.5-1.2-4.5-4.4l0-83.1c0-3.3,1.2-4.4,4.5-4.4l35.8,0C60.3,27.7,70.1,36.4,70.1,51.9"
			/>
		<path class="st0" d="M94.3,119.7h-7c-3.1,0-4-1-4-4V27.7c0-2.9,0.9-4,4-4h7c2.9,0,4,1,4,4l0,87.9
			C98.3,118.7,97.4,119.7,94.3,119.7"/>
		<path class="st0" d="M167.1,56.4v53.3c0,4-0.9,5.6-5,7.2c-5.1,2.1-13.1,4.5-25.4,4.5c-18.6,0-27.1-9.8-27.1-26v-39
			c0-2.9,1-3.9,4-3.9h7.1c2.9,0,3.9,0.9,3.9,3.9V95c0,8.7,4.6,12.8,14.2,12.8c5,0,8.4-0.5,12-1.6c1.2-0.4,1.5-1.2,1.5-2.2l0-47.6
			c0-2.9,1-3.9,4-3.9l7,0C166.1,52.5,167.1,53.5,167.1,56.4"/>
		<path class="st0" d="M206.8,63.4c-9.8,0-15,4.8-15,13.2v2.8l30,0v-2.8C221.7,68.2,216.6,63.4,206.8,63.4 M206.8,50.7
			c20.7,0,30,12,30,26.9v7.9c0,3.4-1.3,5.6-5.9,5.6l-39.1,0v4.8c0,8.4,5.4,13,14.8,13c7.7,0,12.6-2.6,15.3-6.8
			c2.1-2.8,3.5-3.3,6.6-1.6l4.5,2.4c2.9,1.5,3.4,3.7,1.6,6.5c-4.8,7.6-13.5,12.4-28.1,12.4c-21.3,0-29.8-11.9-29.8-27.8V78.7
			C176.6,60.6,187.1,50.7,206.8,50.7"/>
		<path class="st0" d="M319.4,73.7V91c0,17.6-13.2,30.7-36.9,30.7c-23.7,0-37.1-13-37.1-33.7V59.5c0-20.8,13.2-33.6,37.1-33.6
			c19.1,0,30.3,7.7,35.2,21.6c1.2,3.2,0.4,4.5-2.7,5.7l-7.1,2.4c-3.1,1.2-4.4,0.5-5.6-2.7c-2.8-7.9-9-12-19.8-12
			c-13.5,0-20.8,6.5-20.8,18.5v28.7c0,12.1,7.5,18.6,20.8,18.6c13.2,0,21-6.5,21-15.3v-6.7H284c-3.3,0-4.4-1.2-4.4-4.5V74
			c0-3.4,1.2-4.4,4.4-4.4l31.2,0C318.3,69.3,319.4,70.4,319.4,73.7"/>
		<path class="st0" d="M344.7,27.8v24.7c1.2-0.6,7.9-1.8,15.5-1.8c18.6,0,27,9.7,27,26v38.9c0,2.9-1.1,4-4,4h-7c-2.9,0-4-1-4-4V77.1
			c0-8.3-4.9-12.7-14.2-12.7c-6.4,0-12.1,1.3-13.3,2v49.3c0,2.9-0.9,4-3.9,4h-7.1c-2.9,0-4-1-4-4V27.7c0-2.9,1.1-4,4-4h7.1
			C343.9,23.8,344.7,24.8,344.7,27.8"/>
		<path class="st0" d="M426.7,64.3c-9.4,0-14.8,4.4-14.8,12.4v19.2c0,7.8,5.4,12.4,14.8,12.4c9.7,0,14.9-4.5,14.9-12.4V76.6
			C441.5,68.7,436.1,64.3,426.7,64.3 M426.7,50.7c19.4,0,30,9.9,30,25.9v19.2c0,16.1-10.5,25.9-30,25.9c-19.2,0-29.8-9.9-29.8-25.9
			V76.6C396.8,60.5,407.5,50.7,426.7,50.7"/>
		<path class="st0" d="M491.6,50.7c15,0,23.6,5.5,27.8,13.9c1.6,2.9,0.7,4.5-2.1,5.9l-5.9,2.3c-2.8,1.3-3.8,0.9-5.5-1.8
			c-2.2-3.9-5.7-6.7-14.1-6.7c-8.4,0-12.2,2.3-12.2,7c0,6.1,5.1,7.1,15.2,8.1c15.4,1.6,26.4,5,26.4,20.9c0,12.7-9.5,21.6-28,21.6
			c-15.3,0-25.1-5.6-29-15.7c-1-2.7-0.4-4.4,2.6-5.5l5.9-1.8c2.6-0.9,4-0.5,5.4,2.4c2.1,5,6.7,7.1,14.7,7.1c9.2,0,13.8-2.6,13.8-7.7
			c0-6.1-5-7.2-15.5-8.3c-12.7-1.3-26.2-4-26.2-20.9C464.9,59.3,473.7,50.7,491.6,50.7"/>
		<path class="st0" d="M554.3,40.9v11.7l14.8,0c2.9,0,4,0.9,4,3.9v6c0,2.9-1.1,4-4,4l-14.8,0v25.8c0,12.7,3.8,14.9,14.7,14.9
			c3.1,0,4.2,0.9,4.2,4v6c0,3.2-1.1,4-4.2,4.2c-21.4,0.6-29.7-6.1-29.7-28.6V66.5h-8.9c-2.9,0-3.9-1.1-3.9-4v-6
			c0-2.9,0.9-3.9,3.9-3.9l8.9,0V40.8c0-2.9,1-3.9,4-3.9h7C553.2,37,554.3,38,554.3,40.9"/>
		<path class="st0" d="M572.5,25.1c-3.5,0-6.5,2.9-6.5,6.5c0,3.5,2.9,6.5,6.5,6.5c3.5,0,6.5-2.9,6.5-6.5S576.1,25.1,572.5,25.1
			 M572.5,39.4c-4.3,0-7.8-3.5-7.8-7.8s3.5-7.8,7.8-7.8s7.8,3.5,7.8,7.8C580.4,35.9,576.8,39.4,572.5,39.4"/>
		<path class="st0" d="M573,28.7l-2.1,0v2.4h2.1c0.9,0,1.2-0.5,1.2-1.2C574.4,29.2,573.9,28.7,573,28.7 M576,30
			c0,1.2-0.6,2.1-1.6,2.4c0.1,0.1,0.2,0.2,0.4,0.5l1.3,2.6c0.1,0.2,0.1,0.4-0.2,0.4h-0.7c-0.5,0-0.7,0-0.9-0.4l-1-2.1
			c-0.4-0.6-0.6-0.9-1.5-0.9H571v2.8c0,0.2-0.1,0.4-0.4,0.4h-0.7c-0.4,0-0.4-0.1-0.4-0.4v-7.7c0-0.2,0.1-0.4,0.4-0.4h3.3
			C574.9,27.3,576,28.3,576,30"/>
	</g>
	<path class="st0" d="M649.6,34.4c0.2-2.3,1.8-4,3.3-3.7s2.3,2.2,2.1,4.9c-0.1,2.3-1.3,4-2.9,3.8C650.7,39.1,649.3,36.8,649.6,34.4
		 M658.6,37.1c-0.4-2.1,0.1-3.8,1.2-3.8c1.1-0.1,2.6,1.5,2.9,3.5c0.4,2.1-0.5,3.8-1.6,3.9C660.1,40.8,659.1,39.4,658.6,37.1
		 M626.1,65.2c-9,35.7-31.9,36.4-35.7,36.3c-0.2,0-0.5,0.2-0.4,0.5c1.7,4.3,7.2,5.3,7.2,5.3c7.1,14.1,21.6,11.6,21.6,11.6
		c19.8,18.7,30.4,5.6,30.4,5.6c6.6,8.4,12.6-0.1,12.6-0.1c10.3-16.9,13.5-43.7,13.5-43.7c5.4,0.9,6-6,6-6c9.9,2.1,9.5-7.8,9.5-7.8
		c8.9-2.4,7.7-9.2,6.8-11.6c-0.1-0.4-0.6-0.5-0.9-0.2c-4.6,5-10.4,5-10.4,5c-10.5,0.7-15.8-6.1-17.4-15.7
		c-1.1-5.3-4.8-20.1-18.7-22.5c-14.1-2.4-15.3,14.1-15.5,18s-0.6,7.9-7.2,7.7c-5.9-0.2-14.2-7.9-16.1-9.8c-0.2-0.1-0.5-0.1-0.6,0.1
		c-2.6,8.4,4.3,11.5,4.3,11.5c0,7.9,7,7.9,7,7.9C621.2,62.8,626.1,65.2,626.1,65.2"/>
</g>
</svg>
